# xmcd CD database file
#
# Track frame offsets:
#	150
#	18805
#	35822
#	47040
#	59672
#	72547
#	84227
#	98520
#	114675
#	130802
#	147077
#	170205
#	188112
#	197362
#	216172
#
# Disc length: 3112 seconds
#
# Revision: 0
# Processed by: cddbd v1.5.1PL2 Copyright (c) Steve Scherf et al.
# Submitted via: CDex 1.51
#
DISCID=d80c260f
DTITLE=Glow - Superclass
DYEAR=1999
DGENRE=Rock
TTITLE0=Mr.Brown
TTITLE1=Uh-Uh
TTITLE2=Dancing Queen
TTITLE3=Cold Snow
TTITLE4=Lamp-Post
TTITLE5=High Spirits
TTITLE6=Falling Angels
TTITLE7=Wish I Could Stay
TTITLE8=Party People
TTITLE9=Travel Around The World
TTITLE10=Friends
TTITLE11=Alone
TTITLE12=Walking Down My Way
TTITLE13=Shoo Be Doo
TTITLE14=Faster 2000
EXTD=YEAR: 1999
EXTT0=
EXTT1=
EXTT2=
EXTT3=
EXTT4=
EXTT5=
EXTT6=
EXTT7=
EXTT8=
EXTT9=
EXTT10=
EXTT11=
EXTT12=
EXTT13=
EXTT14=
PLAYORDER=
